<?xml version="1.0" encoding="UTF-8" standalone="no"?>
<svg
   height="16"
   viewBox="0 0 16 16"
   width="16"
   version="1.1"
   id="svg1"
   sodipodi:docname="cinematic_camera_2d.svg"
   inkscape:version="1.3 (0e150ed6c4, 2023-07-21)"
   xmlns:inkscape="http://www.inkscape.org/namespaces/inkscape"
   xmlns:sodipodi="http://sodipodi.sourceforge.net/DTD/sodipodi-0.dtd"
   xmlns="http://www.w3.org/2000/svg"
   xmlns:svg="http://www.w3.org/2000/svg">
  <defs
     id="defs1" />
  <sodipodi:namedview
     id="namedview1"
     pagecolor="#ffffff"
     bordercolor="#000000"
     borderopacity="0.25"
     inkscape:showpageshadow="2"
     inkscape:pageopacity="0.0"
     inkscape:pagecheckerboard="0"
     inkscape:deskcolor="#d1d1d1"
     inkscape:zoom="50.9375"
     inkscape:cx="8"
     inkscape:cy="8"
     inkscape:window-width="1920"
     inkscape:window-height="1019"
     inkscape:window-x="0"
     inkscape:window-y="0"
     inkscape:window-maximized="1"
     inkscape:current-layer="svg1" />
  <path
     d="m 9.531253,1.1478352e-5 a 3,3 0 0 0 -3,2.776999921648 3,3 0 1 0 -3,5.0469995 v 2.1760001 a 1,1 0 0 0 1,1 h 6 a 1,1 0 0 0 1,-1 V 9.0000109 l 3,2.0000001 V 5.0000114 l -3,1.9999995 V 5.2300114 a 3,3 0 0 0 -2,-5.229999921648 z"
     fill="#8da5f3"
     id="path1" />
  <path
     sodipodi:type="star"
     style="fill:#8da5f3;stroke:#8da5f3"
     id="path2"
     inkscape:flatsided="true"
     sodipodi:sides="3"
     sodipodi:cx="5.5391884"
     sodipodi:cy="11.383124"
     sodipodi:r1="2.4147239"
     sodipodi:r2="1.2073621"
     sodipodi:arg1="0"
     sodipodi:arg2="1.0471976"
     inkscape:rounded="0"
     inkscape:randomized="0"
     d="m 7.9539123,11.383124 -3.6220859,2.091213 0,-4.1824249 z"
     inkscape:transform-center-x="-0.63579241"
     transform="matrix(1.053193,0,0,0.74225341,1.1519684,5.2505259)" />
</svg>
