<?xml version="1.0"?>
<svg width="16" height="16" xmlns="http://www.w3.org/2000/svg" xmlns:svg="http://www.w3.org/2000/svg">

 <g class="layer">
  <title>Layer 1</title>
  <path d="m9.16,0.82a2.42,2.42 0 0 0 -2.41,2.25a2.42,2.42 0 0 0 -1.62,-0.63a2.42,2.42 0 0 0 -2.42,2.42a2.42,2.42 0 0 0 1.62,2.28l0,1.76c0,0.44 0.36,0.81 0.81,0.81l4.85,0c0.44,0 0.81,-0.36 0.81,-0.81l0,-0.81l2.42,1.62l0,-4.85l-2.42,1.62l0,-1.43a2.42,2.42 0 0 0 0.81,-1.8a2.42,2.42 0 0 0 -2.42,-2.42z" fill="#8da5f3" id="svg_1" starRadiusMultiplier="2"/>
  <polygon cx="4.15" cy="12.6" fill="#8da5f3" id="svg_2" orient="point" point="3" points="7.849999904632568,10.307922929525375 9.041942596435547,12.790760606527328 10.23388671875,15.27360114455223 7.849999904632568,15.27360114455223 5.466114044189453,15.27360114455223 6.658057689666748,12.790760606527328 7.849999904632568,10.307922929525375 9.041942596435547,12.790760606527328 " r="11.04" r2="5.52" radialshift="0" shape="star" starRadiusMultiplier="2" stroke="null" stroke-width="NaN" transform="rotate(89.2463, 7.85, 12.7908)"/>
 </g>
</svg>